<?xml version="1.0" encoding="UTF-8"?>
<!DOCTYPE svg PUBLIC "-//W3C//DTD SVG 1.1//EN" "http://www.w3.org/Graphics/SVG/1.1/DTD/svg11.dtd">
<svg xmlns="http://www.w3.org/2000/svg" version="1.1" width="470px" height="564px" style="shape-rendering:geometricPrecision; text-rendering:geometricPrecision; image-rendering:optimizeQuality; fill-rule:evenodd; clip-rule:evenodd" xmlns:xlink="http://www.w3.org/1999/xlink">
<g><path style="opacity:1" fill="#fcfcfc" d="M -0.5,-0.5 C 156.167,-0.5 312.833,-0.5 469.5,-0.5C 469.5,187.5 469.5,375.5 469.5,563.5C 312.833,563.5 156.167,563.5 -0.5,563.5C -0.5,375.5 -0.5,187.5 -0.5,-0.5 Z"/></g>
<g><path style="opacity:1" fill="#eff1f0" d="M 227.5,76.5 C 227.171,79.2282 227.837,81.5615 229.5,83.5C 229.171,86.2282 229.837,88.5615 231.5,90.5C 231.294,93.4951 231.96,96.1617 233.5,98.5C 235.842,112.587 237.842,126.587 239.5,140.5C 239.727,149.515 239.894,158.515 240,167.5C 233.808,169.423 227.641,171.423 221.5,173.5C 220.414,173.38 219.747,172.713 219.5,171.5C 214.321,152.787 207.488,134.787 199,117.5C 204.339,136.715 210.172,155.881 216.5,175C 216.164,176.03 215.497,176.53 214.5,176.5C 209.626,163.092 203.959,150.092 197.5,137.5C 188.736,116.969 180.236,96.302 172,75.5C 166.312,55.1868 173.646,42.8535 194,38.5C 198.889,38.7965 203.389,40.2965 207.5,43C 218.141,51.8046 224.808,62.9713 227.5,76.5 Z"/></g>
<g><path style="opacity:1" fill="#f0f2f1" d="M 268.5,169.5 C 267.735,169.923 266.902,170.257 266,170.5C 259.355,168.254 252.521,167.254 245.5,167.5C 245.355,158.312 244.689,149.312 243.5,140.5C 242.137,126.874 241.47,113.208 241.5,99.5C 242.767,85.6598 245.267,71.9932 249,58.5C 252.725,50.1081 258.559,43.6081 266.5,39C 289.658,37.3945 299.491,48.2278 296,71.5C 289.767,105.027 280.6,137.693 268.5,169.5 Z"/></g>
<g><path style="opacity:1" fill="#c9c9c9" d="M 322.5,74.5 C 329.159,73.0245 335.826,73.5245 342.5,76C 342.167,76.3333 341.833,76.6667 341.5,77C 342.381,77.7083 343.047,78.5416 343.5,79.5C 337.198,75.1828 330.198,73.5162 322.5,74.5 Z"/></g>
<g><path style="opacity:1" fill="#c8c9ca" d="M 300.5,72.5 C 300.034,78.491 299.701,84.491 299.5,90.5C 299.315,92.1958 298.481,93.5291 297,94.5C 297.476,86.9691 298.643,79.6358 300.5,72.5 Z"/></g>
<g><path style="opacity:1" fill="#181919" d="M 300.5,72.5 C 298.643,79.6358 297.476,86.9691 297,94.5C 298.481,93.5291 299.315,92.1958 299.5,90.5C 302.964,87.5375 306.297,84.3709 309.5,81C 313.581,78.2928 317.914,76.1261 322.5,74.5C 330.198,73.5162 337.198,75.1828 343.5,79.5C 350.289,85.7014 352.789,93.3681 351,102.5C 350.162,105.852 349.329,109.185 348.5,112.5C 347.957,112.56 347.624,112.893 347.5,113.5C 349.261,114.917 350.594,116.583 351.5,118.5C 350.078,118.709 348.745,119.209 347.5,120C 326.972,138.252 309.639,159.086 295.5,182.5C 294.185,180.024 293.018,180.358 292,183.5C 291.617,182.944 291.117,182.611 290.5,182.5C 303.444,160.039 319.278,139.706 338,121.5C 342.556,116.002 345.056,109.669 345.5,102.5C 347.96,98.5502 347.96,94.5502 345.5,90.5C 339.873,80.677 331.54,77.177 320.5,80C 307.888,86.6126 298.721,96.4459 293,109.5C 288.99,120.696 285.49,132.029 282.5,143.5C 280.462,147.94 278.796,152.607 277.5,157.5C 277.011,158.995 276.345,160.329 275.5,161.5C 275.565,161.062 275.399,160.728 275,160.5C 274.333,161.833 273.333,162.833 272,163.5C 272.991,166.244 272.657,168.911 271,171.5C 270.583,170.244 269.75,169.577 268.5,169.5C 280.6,137.693 289.767,105.027 296,71.5C 299.491,48.2278 289.658,37.3945 266.5,39C 258.559,43.6081 252.725,50.1081 249,58.5C 245.267,71.9932 242.767,85.6598 241.5,99.5C 240.672,105.987 240.172,112.654 240,119.5C 239.551,116.868 238.717,114.368 237.5,112C 238.812,108.756 238.145,105.923 235.5,103.5C 237.217,100.048 236.551,97.3809 233.5,95.5C 232.976,93.6943 232.309,92.0276 231.5,90.5C 231.59,87.8478 230.924,85.5145 229.5,83.5C 229.59,80.8478 228.924,78.5145 227.5,76.5C 224.808,62.9713 218.141,51.8046 207.5,43C 203.389,40.2965 198.889,38.7965 194,38.5C 173.646,42.8535 166.312,55.1868 172,75.5C 180.236,96.302 188.736,116.969 197.5,137.5C 196.624,137.631 195.957,137.298 195.5,136.5C 193.726,133.285 192.226,129.952 191,126.5C 189.984,127.634 189.317,127.301 189,125.5C 188.837,127.676 188.004,129.509 186.5,131C 188.046,133.257 189.712,135.424 191.5,137.5C 191.137,138.183 190.804,138.85 190.5,139.5C 187.261,136.017 184.261,132.35 181.5,128.5C 167.433,108.599 149.1,94.0989 126.5,85C 114.884,81.7317 106.05,85.2317 100,95.5C 97.1228,105.8 98.4561,115.467 104,124.5C 112.91,134 122.41,142.667 132.5,150.5C 131.448,150.351 130.448,150.517 129.5,151C 131.548,152.956 133.214,155.123 134.5,157.5C 122.949,149.124 112.116,139.791 102,129.5C 91.9376,116.425 90.9376,102.759 99,88.5C 105.322,80.4251 113.489,77.5917 123.5,80C 137.342,83.4209 149.675,89.7543 160.5,99C 170.068,107.898 178.901,117.398 187,127.5C 187.325,125.447 186.991,123.447 186,121.5C 178.559,105.949 172.225,89.9488 167,73.5C 162.51,54.9112 169.01,42.0778 186.5,35C 195.573,33.2372 203.906,34.9038 211.5,40C 221.76,49.0104 228.593,60.1771 232,73.5C 233.663,79.8174 235.163,86.1507 236.5,92.5C 236.56,93.0431 236.893,93.3764 237.5,93.5C 239.003,89.6447 239.67,85.6447 239.5,81.5C 240.144,70.2591 242.977,59.5924 248,49.5C 258.622,32.1979 272.789,28.6979 290.5,39C 295.312,42.8005 298.479,47.6338 300,53.5C 300.5,59.8246 300.666,66.1579 300.5,72.5 Z"/></g>
<g><path style="opacity:1" fill="#959796" d="M 227.5,76.5 C 228.924,78.5145 229.59,80.8478 229.5,83.5C 227.837,81.5615 227.171,79.2282 227.5,76.5 Z"/></g>
<g><path style="opacity:1" fill="#a99070" d="M 280.5,45.5 C 281.496,45.4142 282.329,45.7476 283,46.5C 287.088,63.2223 285.755,79.5556 279,95.5C 279.535,83.3427 280.368,71.176 281.5,59C 281.359,54.4742 281.025,49.9742 280.5,45.5 Z"/></g>
<g><path style="opacity:1" fill="#888888" d="M 239.5,81.5 C 239.67,85.6447 239.003,89.6447 237.5,93.5C 236.893,93.3764 236.56,93.0431 236.5,92.5C 237.225,88.769 238.225,85.1023 239.5,81.5 Z"/></g>
<g><path style="opacity:1" fill="#8f908f" d="M 229.5,83.5 C 230.924,85.5145 231.59,87.8478 231.5,90.5C 229.837,88.5615 229.171,86.2282 229.5,83.5 Z"/></g>
<g><path style="opacity:1" fill="#eff2f0" d="M 181.5,128.5 C 183.19,132.187 182.69,132.854 180,130.5C 178.989,131.337 177.822,131.67 176.5,131.5C 176.5,134.167 176.5,136.833 176.5,139.5C 178.833,139.5 181.167,139.5 183.5,139.5C 184.564,142.082 184.897,146.749 184.5,153.5C 188.704,153.176 192.537,154.176 196,156.5C 197.343,155.786 198.676,156.12 200,157.5C 200.402,158.872 200.902,160.205 201.5,161.5C 200.833,161.833 200.167,162.167 199.5,162.5C 200.635,170.451 200.802,178.451 200,186.5C 196.677,188.706 193.177,189.039 189.5,187.5C 169.87,169.703 151.036,151.037 133,131.5C 124.602,121.702 116.935,111.368 110,100.5C 110.086,103.702 111.086,106.702 113,109.5C 120.027,120.882 128.027,131.549 137,141.5C 155.259,160.763 174.426,178.93 194.5,196C 195.252,196.671 195.586,197.504 195.5,198.5C 194.279,199.465 192.946,199.298 191.5,198C 172.248,181.574 152.581,165.741 132.5,150.5C 122.41,142.667 112.91,134 104,124.5C 98.4561,115.467 97.1228,105.8 100,95.5C 106.05,85.2317 114.884,81.7317 126.5,85C 149.1,94.0989 167.433,108.599 181.5,128.5 Z"/></g>
<g><path style="opacity:1" fill="#a7a9a8" d="M 345.5,90.5 C 347.96,94.5502 347.96,98.5502 345.5,102.5C 345.5,98.5 345.5,94.5 345.5,90.5 Z"/></g>
<g><path style="opacity:1" fill="#808080" d="M 231.5,90.5 C 232.309,92.0276 232.976,93.6943 233.5,95.5C 233.5,96.5 233.5,97.5 233.5,98.5C 231.96,96.1617 231.294,93.4951 231.5,90.5 Z"/></g>
<g><path style="opacity:1" fill="#eef0f0" d="M 345.5,90.5 C 345.5,94.5 345.5,98.5 345.5,102.5C 345.056,109.669 342.556,116.002 338,121.5C 319.278,139.706 303.444,160.039 290.5,182.5C 289.448,182.649 288.448,182.483 287.5,182C 283.265,177.963 278.432,174.796 273,172.5C 273.293,168.771 274.126,165.104 275.5,161.5C 276.345,160.329 277.011,158.995 277.5,157.5C 280.324,153.37 281.991,148.703 282.5,143.5C 285.49,132.029 288.99,120.696 293,109.5C 298.721,96.4459 307.888,86.6126 320.5,80C 331.54,77.177 339.873,80.677 345.5,90.5 Z"/></g>
<g><path style="opacity:1" fill="#3c3c3e" d="M 368.5,111.5 C 365.482,111.335 362.482,111.502 359.5,112C 360.833,112.333 362.167,112.667 363.5,113C 360.798,113.607 358.132,113.44 355.5,112.5C 354.263,112.556 353.263,113.056 352.5,114C 357.906,115.068 363.239,115.901 368.5,116.5C 362.647,116.051 356.98,116.717 351.5,118.5C 350.594,116.583 349.261,114.917 347.5,113.5C 347.624,112.893 347.957,112.56 348.5,112.5C 348.735,113.097 349.235,113.43 350,113.5C 356.015,110.543 362.181,109.876 368.5,111.5 Z"/></g>
<g><path style="opacity:1" fill="#aa9172" d="M 335.5,86.5 C 336.805,88.3972 337.471,90.7305 337.5,93.5C 337.333,95.8333 337.167,98.1667 337,100.5C 331.962,112.241 325.629,123.241 318,133.5C 321.765,122.954 326.432,112.62 332,102.5C 333.9,97.3064 335.067,91.973 335.5,86.5 Z"/></g>
<g><path style="opacity:1" fill="#2b2b2b" d="M 233.5,95.5 C 236.551,97.3809 237.217,100.048 235.5,103.5C 238.145,105.923 238.812,108.756 237.5,112C 238.717,114.368 239.551,116.868 240,119.5C 240.172,112.654 240.672,105.987 241.5,99.5C 241.47,113.208 242.137,126.874 243.5,140.5C 242.683,138.031 242.183,135.365 242,132.5C 241.586,132.043 241.086,131.709 240.5,131.5C 239.516,134.428 239.183,137.428 239.5,140.5C 237.842,126.587 235.842,112.587 233.5,98.5C 233.5,97.5 233.5,96.5 233.5,95.5 Z"/></g>
<g><path style="opacity:1" fill="#6f6f71" d="M 385.5,126.5 C 387.569,130.044 387.902,133.71 386.5,137.5C 386.448,133.802 386.114,130.135 385.5,126.5 Z"/></g>
<g><path style="opacity:1" fill="#edf0ef" d="M 368.5,116.5 C 379.708,120.575 383.875,128.575 381,140.5C 379.304,145.206 376.971,149.539 374,153.5C 364.436,163.734 354.269,173.234 343.5,182C 330.008,188.24 317.342,195.74 305.5,204.5C 301.996,198.156 297.996,192.156 293.5,186.5C 294.18,185.14 294.847,183.807 295.5,182.5C 309.639,159.086 326.972,138.252 347.5,120C 348.745,119.209 350.078,118.709 351.5,118.5C 356.98,116.717 362.647,116.051 368.5,116.5 Z"/></g>
<g><path style="opacity:1" fill="#a48e71" d="M 189.5,187.5 C 191.569,190.573 194.236,192.906 197.5,194.5C 197.011,195.995 196.345,197.329 195.5,198.5C 195.586,197.504 195.252,196.671 194.5,196C 174.426,178.93 155.259,160.763 137,141.5C 128.027,131.549 120.027,120.882 113,109.5C 111.086,106.702 110.086,103.702 110,100.5C 116.935,111.368 124.602,121.702 133,131.5C 151.036,151.037 169.87,169.703 189.5,187.5 Z"/></g>
<g><path style="opacity:1" fill="#e7e7e6" d="M 181.5,128.5 C 184.261,132.35 187.261,136.017 190.5,139.5C 198.863,151.88 205.529,165.213 210.5,179.5C 206.519,184.813 202.186,189.813 197.5,194.5C 194.236,192.906 191.569,190.573 189.5,187.5C 193.177,189.039 196.677,188.706 200,186.5C 200.802,178.451 200.635,170.451 199.5,162.5C 200.167,162.167 200.833,161.833 201.5,161.5C 200.902,160.205 200.402,158.872 200,157.5C 198.676,156.12 197.343,155.786 196,156.5C 192.537,154.176 188.704,153.176 184.5,153.5C 184.897,146.749 184.564,142.082 183.5,139.5C 181.167,139.5 178.833,139.5 176.5,139.5C 176.5,136.833 176.5,134.167 176.5,131.5C 177.822,131.67 178.989,131.337 180,130.5C 182.69,132.854 183.19,132.187 181.5,128.5 Z"/></g>
<g><path style="opacity:1" fill="#a89277" d="M 221.5,173.5 C 219.653,174.687 217.82,176.021 216,177.5C 215.235,177.43 214.735,177.097 214.5,176.5C 215.497,176.53 216.164,176.03 216.5,175C 210.172,155.881 204.339,136.715 199,117.5C 207.488,134.787 214.321,152.787 219.5,171.5C 219.747,172.713 220.414,173.38 221.5,173.5 Z"/></g>
<g><path style="opacity:1" fill="#949594" d="M 347.5,229.5 C 352.731,229.444 357.731,230.111 362.5,231.5C 357.269,231.556 352.269,230.889 347.5,229.5 Z"/></g>
<g><path style="opacity:1" fill="#9c9c9c" d="M 362.5,231.5 C 366.489,231.116 370.155,231.783 373.5,233.5C 369.64,233.192 365.974,232.525 362.5,231.5 Z"/></g>
<g><path style="opacity:1" fill="#d08e3f" d="M 302.5,233.5 C 301.636,239.092 299.969,244.425 297.5,249.5C 288.954,259.906 278.288,267.239 265.5,271.5C 256.582,273.103 247.582,273.77 238.5,273.5C 222.064,270.937 209.231,262.603 200,248.5C 197.078,242.479 195.245,236.146 194.5,229.5C 195.5,229.5 196.5,229.5 197.5,229.5C 197.232,227.901 197.566,226.568 198.5,225.5C 200.288,223.804 202.455,222.471 205,221.5C 208.444,223.939 211.611,226.773 214.5,230C 224.208,236.147 234.874,239.147 246.5,239C 251.984,242.069 257.817,242.902 264,241.5C 268.936,243.29 274.102,243.957 279.5,243.5C 279.5,242.167 279.5,240.833 279.5,239.5C 280.5,239.5 281.5,239.5 282.5,239.5C 282.5,240.833 282.5,242.167 282.5,243.5C 287.225,242.316 291.892,240.816 296.5,239C 297.337,237.989 297.67,236.822 297.5,235.5C 299.554,235.635 301.221,234.968 302.5,233.5 Z"/></g>
<g><path style="opacity:1" fill="#eff1f0" d="M 316.5,233.5 C 345.532,231.794 373.532,236.294 400.5,247C 411.276,251.781 419.443,259.281 425,269.5C 427.832,287.353 420.332,298.187 402.5,302C 389.612,302.756 377.279,300.423 365.5,295C 345.437,286.09 326.77,274.923 309.5,261.5C 305.873,259.206 302.539,256.54 299.5,253.5C 303.254,247.992 305.92,241.992 307.5,235.5C 310.266,233.871 313.266,233.205 316.5,233.5 Z"/></g>
<g><path style="opacity:1" fill="#999a99" d="M 383.5,235.5 C 386.152,235.41 388.485,236.076 390.5,237.5C 387.848,237.59 385.515,236.924 383.5,235.5 Z"/></g>
<g><path style="opacity:1" fill="#f0f2f1" d="M 196.5,251.5 C 195.833,252.833 195.167,254.167 194.5,255.5C 176.503,268.832 156.836,278.999 135.5,286C 125.182,288.33 114.848,290.497 104.5,292.5C 97.825,292.666 91.1583,292.5 84.5,292C 90.6527,290.545 96.9861,290.045 103.5,290.5C 103.768,287.881 103.435,285.381 102.5,283C 95.5079,282.5 88.5079,282.334 81.5,282.5C 81.7935,278.563 81.4601,274.73 80.5,271C 81.2444,269.185 81.9111,267.352 82.5,265.5C 86.5676,262.891 90.9009,260.724 95.5,259C 105.616,256.46 115.616,253.627 125.5,250.5C 128.067,250.279 130.401,249.612 132.5,248.5C 150.678,244.398 169.012,241.065 187.5,238.5C 189.374,238.39 190.874,239.056 192,240.5C 193.052,244.405 194.552,248.071 196.5,251.5 Z"/></g>
<g><path style="opacity:1" fill="#353535" d="M 133.5,243.5 C 131.438,244.776 129.104,245.61 126.5,246C 129.167,246.667 129.167,247.333 126.5,248C 128.473,248.495 130.473,248.662 132.5,248.5C 130.401,249.612 128.067,250.279 125.5,250.5C 125.119,249.069 124.119,248.236 122.5,248C 123.5,247.667 124.5,247.333 125.5,247C 122.843,246.825 120.176,246.992 117.5,247.5C 122.573,245.547 127.906,244.214 133.5,243.5 Z"/></g>
<g><path style="opacity:1" fill="#161616" d="M 368.5,111.5 C 376.369,114.038 382.036,119.038 385.5,126.5C 386.114,130.135 386.448,133.802 386.5,137.5C 385.192,143.126 383.025,148.459 380,153.5C 373.5,161.333 366.333,168.5 358.5,175C 368.933,172.045 379.6,169.712 390.5,168C 406.816,165.661 421.816,168.994 435.5,178C 446.651,189.154 447.318,200.821 437.5,213C 434.618,214.608 431.618,215.941 428.5,217C 399.616,219.56 370.949,223.393 342.5,228.5C 338.132,230.188 333.465,231.022 328.5,231C 329.833,231.333 331.167,231.667 332.5,232C 326.984,232.173 321.651,232.673 316.5,233.5C 313.266,233.205 310.266,233.871 307.5,235.5C 305.92,241.992 303.254,247.992 299.5,253.5C 302.539,256.54 305.873,259.206 309.5,261.5C 309.33,262.822 309.663,263.989 310.5,265C 309.175,264.852 308.008,265.018 307,265.5C 304.436,262.341 300.936,259.508 296.5,257C 295.295,254.766 295.961,253.099 298.5,252C 297.748,251.329 297.414,250.496 297.5,249.5C 299.969,244.425 301.636,239.092 302.5,233.5C 305.727,206.48 294.727,187.314 269.5,176C 244.943,167.708 223.777,172.874 206,191.5C 196.631,202.443 192.798,215.109 194.5,229.5C 195.245,236.146 197.078,242.479 200,248.5C 209.231,262.603 222.064,270.937 238.5,273.5C 244.319,274.328 250.319,274.828 256.5,275C 257.5,275.333 258.5,275.667 259.5,276C 257.942,276.21 256.609,276.71 255.5,277.5C 252.038,278.482 248.371,278.815 244.5,278.5C 244.635,285.862 244.302,293.196 243.5,300.5C 242.335,305.633 241.668,310.966 241.5,316.5C 240.698,315.048 240.198,313.382 240,311.5C 239.667,313.167 239.333,314.833 239,316.5C 238.503,313.854 238.336,311.187 238.5,308.5C 239.125,298.835 239.292,289.169 239,279.5C 238.617,278.944 238.117,278.611 237.5,278.5C 235.039,277.469 232.373,276.802 229.5,276.5C 226.898,275.339 224.231,274.172 221.5,273C 220.056,272.219 218.723,272.386 217.5,273.5C 207.895,296.044 196.729,317.711 184,338.5C 178.677,349.468 175.177,360.968 173.5,373C 173.103,381.196 176.437,387.196 183.5,391C 199.685,392.991 211.851,386.824 220,372.5C 225.552,361.511 230.052,350.178 233.5,338.5C 234.268,339.263 234.768,340.263 235,341.5C 236.342,340.098 237.176,340.431 237.5,342.5C 238.217,348.684 239.217,354.684 240.5,360.5C 240.663,362.857 240.497,365.19 240,367.5C 239.449,364.443 237.783,364.11 235,366.5C 234.517,367.448 234.351,368.448 234.5,369.5C 229.005,404.948 227.005,440.615 228.5,476.5C 226.333,482.902 226.833,489.235 230,495.5C 230.407,498.682 230.907,501.849 231.5,505C 231.472,506.07 231.139,506.903 230.5,507.5C 227.666,496.998 225.666,486.331 224.5,475.5C 223.191,451.494 223.191,427.494 224.5,403.5C 227.602,390.444 229.435,377.11 230,363.5C 227.689,366.937 225.855,370.604 224.5,374.5C 222.684,376.118 221.351,378.118 220.5,380.5C 216.815,385.348 212.315,389.348 207,392.5C 206.503,394.81 206.337,397.143 206.5,399.5C 203.828,415.07 202.495,430.904 202.5,447C 202.618,465.742 203.951,484.242 206.5,502.5C 206.646,506.519 206.979,510.519 207.5,514.5C 205.689,512.615 204.522,510.281 204,507.5C 202.008,498.545 200.341,489.545 199,480.5C 198.5,462.503 198.333,444.503 198.5,426.5C 199.755,419.7 200.422,412.7 200.5,405.5C 201.414,402.272 201.747,398.939 201.5,395.5C 181.615,400.401 170.615,392.734 168.5,372.5C 170.284,364.404 172.117,356.404 174,348.5C 165.276,359.107 154.443,366.607 141.5,371C 116.539,376.702 105.373,366.869 108,341.5C 110.079,337.007 112.412,332.674 115,328.5C 120.793,321.039 126.959,313.872 133.5,307C 128.367,307.43 123.367,308.596 118.5,310.5C 109.582,312.103 100.582,312.77 91.5,312.5C 87.6648,312.583 83.9981,311.917 80.5,310.5C 81.7985,308.901 83.4652,308.401 85.5,309C 83.4049,309.556 83.2382,310.056 85,310.5C 86.3026,310.022 87.4693,309.355 88.5,308.5C 109.102,308.278 128.768,303.778 147.5,295C 167.27,285.87 185.436,274.37 202,260.5C 202.667,259.833 202.667,259.167 202,258.5C 199.664,256.46 197.831,254.127 196.5,251.5C 194.552,248.071 193.052,244.405 192,240.5C 190.874,239.056 189.374,238.39 187.5,238.5C 169.012,241.065 150.678,244.398 132.5,248.5C 130.473,248.662 128.473,248.495 126.5,248C 129.167,247.333 129.167,246.667 126.5,246C 129.104,245.61 131.438,244.776 133.5,243.5C 136.967,242.228 140.634,241.228 144.5,240.5C 123.259,238.87 102.259,235.704 81.5,231C 68.9079,228.291 58.4079,222.124 50,212.5C 42.805,199.906 44.6383,188.739 55.5,179C 62.3881,174.962 69.8881,173.128 78,173.5C 116.414,178.896 152.914,190.396 187.5,208C 191.111,209.254 192.611,208.088 192,204.5C 172.935,188.591 153.768,172.924 134.5,157.5C 133.214,155.123 131.548,152.956 129.5,151C 130.448,150.517 131.448,150.351 132.5,150.5C 152.581,165.741 172.248,181.574 191.5,198C 192.946,199.298 194.279,199.465 195.5,198.5C 196.345,197.329 197.011,195.995 197.5,194.5C 202.186,189.813 206.519,184.813 210.5,179.5C 205.529,165.213 198.863,151.88 190.5,139.5C 190.804,138.85 191.137,138.183 191.5,137.5C 189.712,135.424 188.046,133.257 186.5,131C 188.004,129.509 188.837,127.676 189,125.5C 189.317,127.301 189.984,127.634 191,126.5C 192.226,129.952 193.726,133.285 195.5,136.5C 195.957,137.298 196.624,137.631 197.5,137.5C 203.959,150.092 209.626,163.092 214.5,176.5C 214.735,177.097 215.235,177.43 216,177.5C 217.82,176.021 219.653,174.687 221.5,173.5C 227.641,171.423 233.808,169.423 240,167.5C 239.894,158.515 239.727,149.515 239.5,140.5C 239.183,137.428 239.516,134.428 240.5,131.5C 241.086,131.709 241.586,132.043 242,132.5C 242.183,135.365 242.683,138.031 243.5,140.5C 244.689,149.312 245.355,158.312 245.5,167.5C 252.521,167.254 259.355,168.254 266,170.5C 266.902,170.257 267.735,169.923 268.5,169.5C 269.75,169.577 270.583,170.244 271,171.5C 272.657,168.911 272.991,166.244 272,163.5C 273.333,162.833 274.333,161.833 275,160.5C 275.399,160.728 275.565,161.062 275.5,161.5C 274.126,165.104 273.293,168.771 273,172.5C 278.432,174.796 283.265,177.963 287.5,182C 288.448,182.483 289.448,182.649 290.5,182.5C 291.117,182.611 291.617,182.944 292,183.5C 293.018,180.358 294.185,180.024 295.5,182.5C 294.847,183.807 294.18,185.14 293.5,186.5C 297.996,192.156 301.996,198.156 305.5,204.5C 317.342,195.74 330.008,188.24 343.5,182C 354.269,173.234 364.436,163.734 374,153.5C 376.971,149.539 379.304,145.206 381,140.5C 383.875,128.575 379.708,120.575 368.5,116.5C 363.239,115.901 357.906,115.068 352.5,114C 353.263,113.056 354.263,112.556 355.5,112.5C 358.132,113.44 360.798,113.607 363.5,113C 362.167,112.667 360.833,112.333 359.5,112C 362.482,111.502 365.482,111.335 368.5,111.5 Z"/></g>
<g><path style="opacity:1" fill="#a8aaa9" d="M 123.5,233.5 C 145.17,234.746 166.836,234.746 188.5,233.5C 178.043,235.017 167.376,235.683 156.5,235.5C 145.293,235.668 134.293,235.001 123.5,233.5 Z"/></g>
<g><path style="opacity:1" fill="#873c1e" d="M 209.5,230.5 C 210.5,230.5 211.5,230.5 212.5,230.5C 212.5,231.5 212.5,232.5 212.5,233.5C 211.5,233.5 210.5,233.5 209.5,233.5C 209.5,232.5 209.5,231.5 209.5,230.5 Z"/></g>
<g><path style="opacity:1" fill="#a6a8a7" d="M 98.5,229.5 C 105.098,229.625 111.431,230.625 117.5,232.5C 110.889,232.453 104.556,231.453 98.5,229.5 Z"/></g>
<g><path style="opacity:1" fill="#eeefee" d="M 188.5,233.5 C 166.836,234.746 145.17,234.746 123.5,233.5C 121.265,233.795 119.265,233.461 117.5,232.5C 111.431,230.625 105.098,229.625 98.5,229.5C 82.0377,228.012 67.5377,222.012 55,211.5C 46.6773,195.966 50.8439,185.133 67.5,179C 76.5531,178.154 85.5531,178.487 94.5,180C 127.155,187.496 158.488,198.663 188.5,213.5C 189.818,220.322 189.818,226.989 188.5,233.5 Z"/></g>
<g><path style="opacity:1" fill="#a68c6e" d="M 64.5,200.5 C 64.56,199.957 64.8933,199.624 65.5,199.5C 91.0618,214.646 118.729,223.479 148.5,226C 159.5,226.333 170.5,226.667 181.5,227C 182.646,229.557 181.646,230.89 178.5,231C 142.997,233.166 109.33,226.499 77.5,211C 72.7135,208.045 68.3801,204.545 64.5,200.5 Z"/></g>
<g><path style="opacity:1" fill="#c8cac9" d="M 348.5,222.5 C 337.707,224.94 326.707,226.94 315.5,228.5C 316.209,227.596 317.209,227.263 318.5,227.5C 318.5,226.5 318.5,225.5 318.5,224.5C 321.799,225.376 325.132,225.543 328.5,225C 327.259,223.513 327.759,222.68 330,222.5C 336.138,223.223 342.304,223.223 348.5,222.5 Z"/></g>
<g><path style="opacity:1" fill="#c3c6c5" d="M 366.5,219.5 C 361.016,220.804 355.349,221.804 349.5,222.5C 350.611,221.34 351.611,220.007 352.5,218.5C 356.95,218.962 361.617,219.295 366.5,219.5 Z"/></g>
<g><path style="opacity:1" fill="#c0c4c3" d="M 386.5,216.5 C 380.387,218.06 374.053,219.06 367.5,219.5C 369.347,218.313 371.18,216.979 373,215.5C 374.396,216.394 375.896,217.061 377.5,217.5C 380.449,216.698 383.449,216.364 386.5,216.5 Z"/></g>
<g><path style="opacity:1" fill="#eff1f1" d="M 412.5,173.5 C 422.288,174.81 430.454,179.143 437,186.5C 443.511,199.3 440.011,208.134 426.5,213C 413.193,214.496 399.859,215.663 386.5,216.5C 383.449,216.364 380.449,216.698 377.5,217.5C 375.896,217.061 374.396,216.394 373,215.5C 371.18,216.979 369.347,218.313 367.5,219.5C 367.167,219.5 366.833,219.5 366.5,219.5C 361.617,219.295 356.95,218.962 352.5,218.5C 351.611,220.007 350.611,221.34 349.5,222.5C 349.167,222.5 348.833,222.5 348.5,222.5C 342.304,223.223 336.138,223.223 330,222.5C 327.759,222.68 327.259,223.513 328.5,225C 325.132,225.543 321.799,225.376 318.5,224.5C 318.5,225.5 318.5,226.5 318.5,227.5C 317.209,227.263 316.209,227.596 315.5,228.5C 313.283,229.369 310.95,229.702 308.5,229.5C 308.943,223.19 308.276,217.023 306.5,211C 328.203,192.484 353.203,180.317 381.5,174.5C 391.815,173.733 402.148,173.399 412.5,173.5 Z"/></g>
<g><path style="opacity:1" fill="#a68e73" d="M 420.5,200.5 C 422.924,200.192 425.257,200.526 427.5,201.5C 427.291,202.086 426.957,202.586 426.5,203C 419.177,204.444 411.843,205.444 404.5,206C 409.802,203.838 415.135,202.004 420.5,200.5 Z"/></g>
<g><path style="opacity:1" fill="#e4a646" d="M 302.5,233.5 C 301.221,234.968 299.554,235.635 297.5,235.5C 297.67,236.822 297.337,237.989 296.5,239C 291.892,240.816 287.225,242.316 282.5,243.5C 282.5,242.167 282.5,240.833 282.5,239.5C 281.5,239.5 280.5,239.5 279.5,239.5C 279.5,240.833 279.5,242.167 279.5,243.5C 274.102,243.957 268.936,243.29 264,241.5C 257.817,242.902 251.984,242.069 246.5,239C 234.874,239.147 224.208,236.147 214.5,230C 211.611,226.773 208.444,223.939 205,221.5C 202.455,222.471 200.288,223.804 198.5,225.5C 197.566,226.568 197.232,227.901 197.5,229.5C 196.5,229.5 195.5,229.5 194.5,229.5C 192.798,215.109 196.631,202.443 206,191.5C 223.777,172.874 244.943,167.708 269.5,176C 294.727,187.314 305.727,206.48 302.5,233.5 Z"/></g>
<g><path style="opacity:1" fill="#b36139" d="M 228.5,219.5 C 229.833,219.5 231.167,219.5 232.5,219.5C 232.5,220.833 232.5,222.167 232.5,223.5C 231.167,223.5 229.833,223.5 228.5,223.5C 228.5,222.167 228.5,220.833 228.5,219.5 Z"/></g>
<g><path style="opacity:1" fill="#a85822" d="M 255.5,208.5 C 256.5,208.5 257.5,208.5 258.5,208.5C 258.5,209.5 258.5,210.5 258.5,211.5C 257.5,211.5 256.5,211.5 255.5,211.5C 255.5,210.5 255.5,209.5 255.5,208.5 Z"/></g>
<g><path style="opacity:1" fill="#9d5923" d="M 212.5,208.5 C 213.5,208.5 214.5,208.5 215.5,208.5C 215.5,209.5 215.5,210.5 215.5,211.5C 214.5,211.5 213.5,211.5 212.5,211.5C 212.5,210.5 212.5,209.5 212.5,208.5 Z"/></g>
<g><path style="opacity:1" fill="#694624" d="M 235.5,195.5 C 236.5,195.5 237.5,195.5 238.5,195.5C 238.5,196.833 238.5,198.167 238.5,199.5C 237.5,199.5 236.5,199.5 235.5,199.5C 235.5,198.167 235.5,196.833 235.5,195.5 Z"/></g>
<g><path style="opacity:1" fill="#5c351c" d="M 249.5,187.5 C 252.957,187.667 253.29,188.667 250.5,190.5C 249.614,189.675 249.281,188.675 249.5,187.5 Z"/></g>
<g><path style="opacity:1" fill="#f1dc76" d="M 263.5,181.5 C 268.168,181.14 270.835,183.14 271.5,187.5C 268.455,187.508 265.455,187.841 262.5,188.5C 262.448,186.097 262.781,183.764 263.5,181.5 Z"/></g>
<g><path style="opacity:1" fill="#4e3416" d="M 241.5,183.5 C 242.5,183.5 243.5,183.5 244.5,183.5C 244.5,184.5 244.5,185.5 244.5,186.5C 243.5,186.5 242.5,186.5 241.5,186.5C 241.5,185.5 241.5,184.5 241.5,183.5 Z"/></g>
<g><path style="opacity:1" fill="#f2e287" d="M 242.5,176.5 C 246.869,176.467 251.202,176.8 255.5,177.5C 255.5,178.833 255.5,180.167 255.5,181.5C 252.734,181.33 250.067,180.664 247.5,179.5C 243.631,181.124 239.964,180.791 236.5,178.5C 238.631,177.831 240.631,177.165 242.5,176.5 Z"/></g>
<g><path style="opacity:1" fill="#babcb9" d="M 412.5,173.5 C 402.148,173.399 391.815,173.733 381.5,174.5C 387.427,172.993 393.594,172.326 400,172.5C 404.347,172.501 408.514,172.834 412.5,173.5 Z"/></g>
<g><path style="opacity:1" fill="#a88d6e" d="M 373.5,126.5 C 374.693,126.97 375.36,127.97 375.5,129.5C 373.314,136.872 369.814,143.538 365,149.5C 355.063,160.059 344.563,170.059 333.5,179.5C 332.479,178.998 332.312,178.332 333,177.5C 343,166.833 353,156.167 363,145.5C 367.041,139.414 370.541,133.08 373.5,126.5 Z"/></g>
<g><path style="opacity:1" fill="#adaead" d="M 282.5,143.5 C 281.991,148.703 280.324,153.37 277.5,157.5C 278.796,152.607 280.462,147.94 282.5,143.5 Z"/></g>
<g><path style="opacity:1" fill="#b57336" d="M 198.5,225.5 C 199.735,225.721 200.735,226.388 201.5,227.5C 203.655,237.161 208.155,245.495 215,252.5C 217.593,254.549 220.093,256.715 222.5,259C 227.584,260.099 232.251,262.099 236.5,265C 231.973,265.734 227.639,265.067 223.5,263C 209.259,254.457 200.926,241.957 198.5,225.5 Z"/></g>
<g><path style="opacity:1" fill="#b56d36" d="M 287.5,247.5 C 288.5,247.5 289.5,247.5 290.5,247.5C 290.649,248.552 290.483,249.552 290,250.5C 285.895,253.138 282.061,256.138 278.5,259.5C 273.828,262.255 268.828,264.255 263.5,265.5C 262.833,265.167 262.167,264.833 261.5,264.5C 264.854,261.318 268.854,259.318 273.5,258.5C 278.21,254.779 282.876,251.112 287.5,247.5 Z"/></g>
<g><path style="opacity:1" fill="#1e1e1e" d="M 125.5,250.5 C 115.616,253.627 105.616,256.46 95.5,259C 90.9009,260.724 86.5676,262.891 82.5,265.5C 71.412,270.681 66.2453,279.348 67,291.5C 71.0804,301.081 78.2471,306.748 88.5,308.5C 87.4693,309.355 86.3026,310.022 85,310.5C 83.2382,310.056 83.4049,309.556 85.5,309C 83.4652,308.401 81.7985,308.901 80.5,310.5C 70.4907,307.99 64.3241,301.657 62,291.5C 61.1327,287.044 61.4661,282.711 63,278.5C 67.5,270 74,263.5 82.5,259C 93.764,253.856 105.431,250.023 117.5,247.5C 120.176,246.992 122.843,246.825 125.5,247C 124.5,247.333 123.5,247.667 122.5,248C 124.119,248.236 125.119,249.069 125.5,250.5 Z"/></g>
<g><path style="opacity:1" fill="#382b1e" d="M 265.5,271.5 C 263.123,272.887 260.457,273.721 257.5,274C 260.457,274.279 263.123,275.113 265.5,276.5C 263.883,277.038 262.216,277.371 260.5,277.5C 258.833,277.5 257.167,277.5 255.5,277.5C 256.609,276.71 257.942,276.21 259.5,276C 258.5,275.667 257.5,275.333 256.5,275C 250.319,274.828 244.319,274.328 238.5,273.5C 247.582,273.77 256.582,273.103 265.5,271.5 Z"/></g>
<g><path style="opacity:1" fill="#a78d6d" d="M 194.5,255.5 C 196.355,255.272 197.188,255.939 197,257.5C 184.565,268.975 170.399,277.808 154.5,284C 135.77,291.956 116.27,296.456 96,297.5C 88.5656,297.766 81.7322,296.099 75.5,292.5C 76.3333,292.167 77.1667,291.833 78,291.5C 86.8983,293.663 95.7317,293.997 104.5,292.5C 114.848,290.497 125.182,288.33 135.5,286C 156.836,278.999 176.503,268.832 194.5,255.5 Z"/></g>
<g><path style="opacity:1" fill="#ebecea" d="M 196.5,251.5 C 197.831,254.127 199.664,256.46 202,258.5C 202.667,259.167 202.667,259.833 202,260.5C 185.436,274.37 167.27,285.87 147.5,295C 128.768,303.778 109.102,308.278 88.5,308.5C 78.2471,306.748 71.0804,301.081 67,291.5C 66.2453,279.348 71.412,270.681 82.5,265.5C 81.9111,267.352 81.2444,269.185 80.5,271C 81.4601,274.73 81.7935,278.563 81.5,282.5C 88.5079,282.334 95.5079,282.5 102.5,283C 103.435,285.381 103.768,287.881 103.5,290.5C 96.9861,290.045 90.6527,290.545 84.5,292C 91.1583,292.5 97.825,292.666 104.5,292.5C 95.7317,293.997 86.8983,293.663 78,291.5C 77.1667,291.833 76.3333,292.167 75.5,292.5C 81.7322,296.099 88.5656,297.766 96,297.5C 116.27,296.456 135.77,291.956 154.5,284C 170.399,277.808 184.565,268.975 197,257.5C 197.188,255.939 196.355,255.272 194.5,255.5C 195.167,254.167 195.833,252.833 196.5,251.5 Z"/></g>
<g><path style="opacity:1" fill="#eff0f0" d="M 209.5,266.5 C 213.146,267.462 214.313,269.795 213,273.5C 204.374,293.08 194.374,312.08 183,330.5C 172.485,346.995 158.318,359.161 140.5,367C 134.833,367.667 129.167,367.667 123.5,367C 116.13,364.273 112.463,358.939 112.5,351C 112.374,345.078 113.874,339.578 117,334.5C 126.01,322.677 135.843,311.51 146.5,301C 164.521,292.332 181.521,282.165 197.5,270.5C 198.376,270.369 199.043,270.702 199.5,271.5C 186.21,296.612 170.376,319.945 152,341.5C 147.135,346.7 141.968,351.533 136.5,356C 134.5,356.667 132.5,356.667 130.5,356C 126.71,352.979 122.377,351.812 117.5,352.5C 117.33,353.822 117.663,354.989 118.5,356C 123.048,356.94 127.048,358.94 130.5,362C 135.021,362.415 139.021,361.082 142.5,358C 169.033,331.44 190.533,301.274 207,267.5C 207.671,266.748 208.504,266.414 209.5,266.5 Z"/></g>
<g><path style="opacity:1" fill="#717272" d="M 243.5,300.5 C 243.844,306.098 243.178,311.432 241.5,316.5C 241.668,310.966 242.335,305.633 243.5,300.5 Z"/></g>
<g><path style="opacity:1" fill="#909092" d="M 118.5,310.5 C 115.851,312.109 112.851,312.943 109.5,313C 103.319,313.819 97.3188,313.653 91.5,312.5C 100.582,312.77 109.582,312.103 118.5,310.5 Z"/></g>
<g><path style="opacity:1" fill="#a48766" d="M 209.5,266.5 C 208.504,266.414 207.671,266.748 207,267.5C 190.533,301.274 169.033,331.44 142.5,358C 139.021,361.082 135.021,362.415 130.5,362C 127.048,358.94 123.048,356.94 118.5,356C 117.663,354.989 117.33,353.822 117.5,352.5C 122.377,351.812 126.71,352.979 130.5,356C 132.5,356.667 134.5,356.667 136.5,356C 141.968,351.533 147.135,346.7 152,341.5C 170.376,319.945 186.21,296.612 199.5,271.5C 199.043,270.702 198.376,270.369 197.5,270.5C 200.185,266.637 203.852,264.804 208.5,265C 209.056,265.383 209.389,265.883 209.5,266.5 Z"/></g>
<g><path style="opacity:1" fill="#a38767" d="M 265.5,276.5 C 265.5,276.833 265.5,277.167 265.5,277.5C 264.903,277.735 264.57,278.235 264.5,279C 279.788,313.877 285.621,350.377 282,388.5C 278.334,393.087 273.501,395.754 267.5,396.5C 263.823,396.664 261.323,394.997 260,391.5C 255.994,381.459 254.161,371.126 254.5,360.5C 257.114,365.509 258.614,370.842 259,376.5C 261.302,381.046 263.302,385.713 265,390.5C 271.118,392.084 275.118,389.751 277,383.5C 278.527,362.302 277.193,341.302 273,320.5C 268.667,306.158 264.5,291.824 260.5,277.5C 262.216,277.371 263.883,277.038 265.5,276.5 Z"/></g>
<g><path style="opacity:1" fill="#eef0ee" d="M 255.5,277.5 C 257.167,277.5 258.833,277.5 260.5,277.5C 264.5,291.824 268.667,306.158 273,320.5C 277.193,341.302 278.527,362.302 277,383.5C 275.118,389.751 271.118,392.084 265,390.5C 263.302,385.713 261.302,381.046 259,376.5C 258.614,370.842 257.114,365.509 254.5,360.5C 254.161,371.126 255.994,381.459 260,391.5C 261.323,394.997 263.823,396.664 267.5,396.5C 273.501,395.754 278.334,393.087 282,388.5C 285.621,350.377 279.788,313.877 264.5,279C 264.57,278.235 264.903,277.735 265.5,277.5C 284.019,308.905 292.852,342.905 292,379.5C 288.489,397.022 277.989,404.189 260.5,401C 254.231,397.567 249.564,392.734 246.5,386.5C 243.663,377.908 241.663,369.241 240.5,360.5C 240.201,353.139 239.534,345.805 238.5,338.5C 239.936,331.218 240.936,323.885 241.5,316.5C 243.178,311.432 243.844,306.098 243.5,300.5C 244.302,293.196 244.635,285.862 244.5,278.5C 248.371,278.815 252.038,278.482 255.5,277.5 Z"/></g>
<g><path style="opacity:1" fill="#a78c69" d="M 229.5,276.5 C 232.373,276.802 235.039,277.469 237.5,278.5C 234.07,291.382 231.57,304.715 230,318.5C 225.803,334.213 219.97,349.213 212.5,363.5C 209.151,368.86 205.318,373.86 201,378.5C 204.537,369.284 208.87,360.284 214,351.5C 219.62,334.814 224.286,317.814 228,300.5C 228.73,292.51 229.23,284.51 229.5,276.5 Z"/></g>
<g><path style="opacity:1" fill="#eef0ef" d="M 229.5,276.5 C 229.23,284.51 228.73,292.51 228,300.5C 224.286,317.814 219.62,334.814 214,351.5C 208.87,360.284 204.537,369.284 201,378.5C 205.318,373.86 209.151,368.86 212.5,363.5C 219.97,349.213 225.803,334.213 230,318.5C 231.57,304.715 234.07,291.382 237.5,278.5C 238.117,278.611 238.617,278.944 239,279.5C 239.292,289.169 239.125,298.835 238.5,308.5C 236.855,318.37 235.188,328.37 233.5,338.5C 230.052,350.178 225.552,361.511 220,372.5C 211.851,386.824 199.685,392.991 183.5,391C 176.437,387.196 173.103,381.196 173.5,373C 175.177,360.968 178.677,349.468 184,338.5C 196.729,317.711 207.895,296.044 217.5,273.5C 218.723,272.386 220.056,272.219 221.5,273C 224.231,274.172 226.898,275.339 229.5,276.5 Z"/></g>
<g><path style="opacity:1" fill="#282a29" d="M 238.5,308.5 C 238.336,311.187 238.503,313.854 239,316.5C 239.333,314.833 239.667,313.167 240,311.5C 240.198,313.382 240.698,315.048 241.5,316.5C 240.936,323.885 239.936,331.218 238.5,338.5C 239.534,345.805 240.201,353.139 240.5,360.5C 239.217,354.684 238.217,348.684 237.5,342.5C 237.176,340.431 236.342,340.098 235,341.5C 234.768,340.263 234.268,339.263 233.5,338.5C 235.188,328.37 236.855,318.37 238.5,308.5 Z"/></g>
<g><path style="opacity:1" fill="#191918" d="M 342.5,228.5 C 343.919,229.451 345.585,229.784 347.5,229.5C 352.269,230.889 357.269,231.556 362.5,231.5C 365.974,232.525 369.64,233.192 373.5,233.5C 376.728,234.546 380.061,235.212 383.5,235.5C 385.515,236.924 387.848,237.59 390.5,237.5C 404.33,242.004 416.164,249.67 426,260.5C 434.697,274.82 432.864,287.654 420.5,299C 410.59,305.966 399.59,308.633 387.5,307C 373.885,302.845 360.552,298.179 347.5,293C 360.469,304.631 370.303,318.464 377,334.5C 381.559,348.087 379.892,360.753 372,372.5C 362.486,379.051 351.986,381.217 340.5,379C 330.519,375.755 322.353,369.922 316,361.5C 308.994,352.15 302.494,342.483 296.5,332.5C 294.593,329.025 292.426,325.691 290,322.5C 289.833,323 289.667,323.5 289.5,324C 292.451,331.59 294.451,339.423 295.5,347.5C 295.875,353.009 296.542,358.342 297.5,363.5C 298.159,375.246 295.659,386.246 290,396.5C 275.635,411.098 261.301,411.098 247,396.5C 244.901,393.3 243.067,389.967 241.5,386.5C 241.5,385.167 241.5,383.833 241.5,382.5C 242.5,382.5 243.5,382.5 244.5,382.5C 244.229,384.38 244.896,385.713 246.5,386.5C 249.564,392.734 254.231,397.567 260.5,401C 277.989,404.189 288.489,397.022 292,379.5C 292.852,342.905 284.019,308.905 265.5,277.5C 265.5,277.167 265.5,276.833 265.5,276.5C 263.123,275.113 260.457,274.279 257.5,274C 260.457,273.721 263.123,272.887 265.5,271.5C 278.288,267.239 288.954,259.906 297.5,249.5C 297.414,250.496 297.748,251.329 298.5,252C 295.961,253.099 295.295,254.766 296.5,257C 300.936,259.508 304.436,262.341 307,265.5C 308.008,265.018 309.175,264.852 310.5,265C 309.663,263.989 309.33,262.822 309.5,261.5C 326.77,274.923 345.437,286.09 365.5,295C 377.279,300.423 389.612,302.756 402.5,302C 420.332,298.187 427.832,287.353 425,269.5C 419.443,259.281 411.276,251.781 400.5,247C 373.532,236.294 345.532,231.794 316.5,233.5C 321.651,232.673 326.984,232.173 332.5,232C 331.167,231.667 329.833,231.333 328.5,231C 333.465,231.022 338.132,230.188 342.5,228.5 Z"/></g>
<g><path style="opacity:1" fill="#d9dad9" d="M 296.5,332.5 C 294.226,334.145 294.226,335.645 296.5,337C 296.804,340.485 296.804,343.985 296.5,347.5C 296.167,347.5 295.833,347.5 295.5,347.5C 294.451,339.423 292.451,331.59 289.5,324C 289.667,323.5 289.833,323 290,322.5C 292.426,325.691 294.593,329.025 296.5,332.5 Z"/></g>
<g><path style="opacity:1" fill="#cfc3b2" d="M 414.5,289.5 C 414.389,290.117 414.056,290.617 413.5,291C 400.983,293.155 388.65,292.989 376.5,290.5C 389.239,292.068 401.906,291.734 414.5,289.5 Z"/></g>
<g><path style="opacity:1" fill="#a99175" d="M 414.5,289.5 C 401.906,291.734 389.239,292.068 376.5,290.5C 352.397,285.074 330.73,274.574 311.5,259C 323.99,265.245 336.657,271.578 349.5,278C 367.612,286.131 386.612,288.797 406.5,286C 411.435,284.733 416.435,283.9 421.5,283.5C 421.67,284.822 421.337,285.989 420.5,287C 418.389,287.845 416.389,288.678 414.5,289.5 Z"/></g>
<g><path style="opacity:1" fill="#eff0ef" d="M 370.5,331.5 C 370.737,334.647 371.57,337.647 373,340.5C 373.499,346.491 373.666,352.491 373.5,358.5C 371.428,366.069 366.762,371.236 359.5,374C 353.167,374.667 346.833,374.667 340.5,374C 331.931,370.444 324.765,364.944 319,357.5C 300.138,331.944 283.972,304.777 270.5,276C 270.645,275.228 270.978,274.561 271.5,274C 280.077,271.373 287.41,266.707 293.5,260C 316.703,271.813 337.203,287.647 355,307.5C 361.204,314.863 366.371,322.863 370.5,331.5 Z"/></g>
<g><path style="opacity:1" fill="#a68b6f" d="M 301.5,267.5 C 308.172,269.675 314.172,273.175 319.5,278C 340.238,297.063 356.738,319.23 369,344.5C 369.988,350.518 369.488,356.351 367.5,362C 364.431,363.846 361.098,364.846 357.5,365C 352.653,365.38 347.82,365.88 343,366.5C 341.833,366.167 340.667,365.833 339.5,365.5C 326.717,353.244 316.55,339.244 309,323.5C 318.742,336.911 329.575,349.411 341.5,361C 348.852,360.947 356.185,360.28 363.5,359C 364.632,354.587 364.799,350.087 364,345.5C 356.613,330.122 347.613,315.788 337,302.5C 325.888,289.887 314.055,278.22 301.5,267.5 Z"/></g>
<g><path style="opacity:1" fill="#b0b2b3" d="M 370.5,331.5 C 372.129,333.858 373.295,336.524 374,339.5C 374.82,346.014 374.653,352.347 373.5,358.5C 373.666,352.491 373.499,346.491 373,340.5C 371.57,337.647 370.737,334.647 370.5,331.5 Z"/></g>
<g><path style="opacity:1" fill="#969696" d="M 295.5,347.5 C 295.833,347.5 296.167,347.5 296.5,347.5C 297.275,352.797 297.608,358.13 297.5,363.5C 296.542,358.342 295.875,353.009 295.5,347.5 Z"/></g>
<g><path style="opacity:1" fill="#727e44" d="M 224.5,403.5 C 224.607,395.233 225.607,387.066 227.5,379C 227.95,376.374 226.95,374.874 224.5,374.5C 225.855,370.604 227.689,366.937 230,363.5C 229.435,377.11 227.602,390.444 224.5,403.5 Z"/></g>
<g><path style="opacity:1" fill="#2a2d2b" d="M 240.5,360.5 C 241.663,369.241 243.663,377.908 246.5,386.5C 244.896,385.713 244.229,384.38 244.5,382.5C 243.5,382.5 242.5,382.5 241.5,382.5C 241.5,383.833 241.5,385.167 241.5,386.5C 239.114,380.46 237.281,374.127 236,367.5C 235.722,368.416 235.222,369.082 234.5,369.5C 234.351,368.448 234.517,367.448 235,366.5C 237.783,364.11 239.449,364.443 240,367.5C 240.497,365.19 240.663,362.857 240.5,360.5 Z"/></g>
<g><path style="opacity:1" fill="#676f3a" d="M 220.5,380.5 C 212.097,427.264 212.597,473.931 222,520.5C 223.699,521.406 225.533,521.739 227.5,521.5C 218.912,524.568 212.245,522.234 207.5,514.5C 206.979,510.519 206.646,506.519 206.5,502.5C 205.154,485.653 204.488,468.653 204.5,451.5C 204.52,434.112 205.186,416.779 206.5,399.5C 206.337,397.143 206.503,394.81 207,392.5C 212.315,389.348 216.815,385.348 220.5,380.5 Z"/></g>
<g><path style="opacity:1" fill="#8f9a51" d="M 224.5,374.5 C 226.95,374.874 227.95,376.374 227.5,379C 225.607,387.066 224.607,395.233 224.5,403.5C 223.191,427.494 223.191,451.494 224.5,475.5C 225.666,486.331 227.666,496.998 230.5,507.5C 231.596,511.289 232.263,511.289 232.5,507.5C 233.641,510.64 233.808,513.973 233,517.5C 231.549,519.464 229.716,520.797 227.5,521.5C 225.533,521.739 223.699,521.406 222,520.5C 212.597,473.931 212.097,427.264 220.5,380.5C 221.351,378.118 222.684,376.118 224.5,374.5 Z"/></g>
<g><path style="opacity:1" fill="#99999b" d="M 200.5,405.5 C 200.422,412.7 199.755,419.7 198.5,426.5C 198.112,419.253 198.779,412.253 200.5,405.5 Z"/></g>
<g><path style="opacity:1" fill="#5c623c" d="M 206.5,399.5 C 205.186,416.779 204.52,434.112 204.5,451.5C 204.488,468.653 205.154,485.653 206.5,502.5C 203.951,484.242 202.618,465.742 202.5,447C 202.495,430.904 203.828,415.07 206.5,399.5 Z"/></g>
<g><path style="opacity:1" fill="#2f2e2e" d="M 228.5,476.5 C 230.349,486.627 231.683,496.961 232.5,507.5C 232.263,511.289 231.596,511.289 230.5,507.5C 231.139,506.903 231.472,506.07 231.5,505C 230.907,501.849 230.407,498.682 230,495.5C 226.833,489.235 226.333,482.902 228.5,476.5 Z"/></g>
</svg>
